<svg xmlns="http://www.w3.org/2000/svg" width="1600" height="1000" viewBox="0 0 1600 1000">
  <defs>
    <linearGradient id="g" x1="0" y1="0" x2="1" y2="1">
      <stop offset="0" stop-color="#0b4aa2" stop-opacity="0.12"/>
      <stop offset="0.55" stop-color="#38bdf8" stop-opacity="0.10"/>
      <stop offset="1" stop-color="#f97316" stop-opacity="0.12"/>
    </linearGradient>
    <linearGradient id="panel" x1="0" y1="0" x2="0" y2="1">
      <stop offset="0" stop-color="#0f172a" stop-opacity="0.75"/>
      <stop offset="1" stop-color="#0f172a" stop-opacity="0.55"/>
    </linearGradient>
    <filter id="soft" x="-20%" y="-20%" width="140%" height="140%">
      <feGaussianBlur stdDeviation="10"/>
    </filter>
  </defs>

  <rect width="1600" height="1000" fill="url(#g)"/>
  <circle cx="420" cy="280" r="260" fill="#38bdf8" opacity="0.10" filter="url(#soft)"/>
  <circle cx="1220" cy="720" r="320" fill="#f97316" opacity="0.10" filter="url(#soft)"/>

  <!-- Stylized modern electrical panel -->
  <g transform="translate(820,160)">
    <rect x="0" y="0" rx="28" ry="28" width="620" height="680" fill="url(#panel)" opacity="0.9"/>
    <rect x="40" y="60" rx="18" ry="18" width="540" height="120" fill="#e2e8f0" opacity="0.10"/>
    <rect x="40" y="210" rx="18" ry="18" width="540" height="420" fill="#e2e8f0" opacity="0.08"/>

    <!-- Breakers rows -->
    <rect x="60" y="260" rx="10" ry="10" width="70" height="70" fill="#e2e8f0" opacity="0.16"/><rect x="150" y="260" rx="10" ry="10" width="70" height="70" fill="#e2e8f0" opacity="0.16"/><rect x="240" y="260" rx="10" ry="10" width="70" height="70" fill="#e2e8f0" opacity="0.16"/><rect x="330" y="260" rx="10" ry="10" width="70" height="70" fill="#e2e8f0" opacity="0.16"/><rect x="420" y="260" rx="10" ry="10" width="70" height="70" fill="#e2e8f0" opacity="0.16"/><rect x="510" y="260" rx="10" ry="10" width="70" height="70" fill="#e2e8f0" opacity="0.16"/><rect x="60" y="350" rx="10" ry="10" width="70" height="70" fill="#e2e8f0" opacity="0.16"/><rect x="150" y="350" rx="10" ry="10" width="70" height="70" fill="#e2e8f0" opacity="0.16"/><rect x="240" y="350" rx="10" ry="10" width="70" height="70" fill="#e2e8f0" opacity="0.16"/><rect x="330" y="350" rx="10" ry="10" width="70" height="70" fill="#e2e8f0" opacity="0.16"/><rect x="420" y="350" rx="10" ry="10" width="70" height="70" fill="#e2e8f0" opacity="0.16"/><rect x="510" y="350" rx="10" ry="10" width="70" height="70" fill="#e2e8f0" opacity="0.16"/><rect x="60" y="440" rx="10" ry="10" width="70" height="70" fill="#e2e8f0" opacity="0.16"/><rect x="150" y="440" rx="10" ry="10" width="70" height="70" fill="#e2e8f0" opacity="0.16"/><rect x="240" y="440" rx="10" ry="10" width="70" height="70" fill="#e2e8f0" opacity="0.16"/><rect x="330" y="440" rx="10" ry="10" width="70" height="70" fill="#e2e8f0" opacity="0.16"/><rect x="420" y="440" rx="10" ry="10" width="70" height="70" fill="#e2e8f0" opacity="0.16"/><rect x="510" y="440" rx="10" ry="10" width="70" height="70" fill="#e2e8f0" opacity="0.16"/><rect x="60" y="530" rx="10" ry="10" width="70" height="70" fill="#e2e8f0" opacity="0.16"/><rect x="150" y="530" rx="10" ry="10" width="70" height="70" fill="#e2e8f0" opacity="0.16"/><rect x="240" y="530" rx="10" ry="10" width="70" height="70" fill="#e2e8f0" opacity="0.16"/><rect x="330" y="530" rx="10" ry="10" width="70" height="70" fill="#e2e8f0" opacity="0.16"/><rect x="420" y="530" rx="10" ry="10" width="70" height="70" fill="#e2e8f0" opacity="0.16"/><rect x="510" y="530" rx="10" ry="10" width="70" height="70" fill="#e2e8f0" opacity="0.16"/>

    <!-- Wiring lines -->
    <path d="M70 230 H560" stroke="#38bdf8" stroke-opacity="0.35" stroke-width="6" stroke-linecap="round"/>
    <path d="M70 650 H560" stroke="#f97316" stroke-opacity="0.30" stroke-width="6" stroke-linecap="round"/>
    <path d="M120 230 V650" stroke="#e2e8f0" stroke-opacity="0.18" stroke-width="4" stroke-linecap="round"/>
    <path d="M510 230 V650" stroke="#e2e8f0" stroke-opacity="0.18" stroke-width="4" stroke-linecap="round"/>

    <!-- Small indicators -->
    <circle cx="95" cy="245" r="6" fill="#22c55e" opacity="0.55"/><circle cx="185" cy="245" r="6" fill="#22c55e" opacity="0.55"/><circle cx="275" cy="245" r="6" fill="#22c55e" opacity="0.55"/><circle cx="365" cy="245" r="6" fill="#22c55e" opacity="0.55"/><circle cx="455" cy="245" r="6" fill="#22c55e" opacity="0.55"/><circle cx="545" cy="245" r="6" fill="#22c55e" opacity="0.55"/>
  </g>

  <!-- Light circuit lines across background -->
  <g fill="none" stroke="#0b4aa2" stroke-opacity="0.10" stroke-width="3">
    <path d="M120 760 H520 V620 H680"/>
    <path d="M160 420 H420 V520 H620"/>
    <path d="M260 160 H520 V240 H720"/>
  </g>
  <g fill="#0b4aa2" opacity="0.10">
    <circle cx="120" cy="760" r="6"/><circle cx="520" cy="760" r="6"/><circle cx="520" cy="620" r="6"/><circle cx="680" cy="620" r="6"/>
    <circle cx="160" cy="420" r="6"/><circle cx="420" cy="420" r="6"/><circle cx="420" cy="520" r="6"/><circle cx="620" cy="520" r="6"/>
    <circle cx="260" cy="160" r="6"/><circle cx="520" cy="160" r="6"/><circle cx="520" cy="240" r="6"/><circle cx="720" cy="240" r="6"/>
  </g>
</svg>